<svg width="175" height="59" viewBox="0 0 175 59" fill="none" xmlns="http://www.w3.org/2000/svg">
<rect y="2.1585" width="46.325" height="46.325" fill="white"/>
<rect x="5.47949" y="9.13224" width="46.325" height="46.325" fill="#59E7B4"/>
<path d="M72.7161 43.272C70.7216 43.272 68.9344 42.9482 67.3544 42.3006C65.7743 41.6531 64.5051 40.6947 63.5467 39.4255C62.6143 38.1563 62.1221 36.6281 62.0703 34.8408H69.1416C69.2452 35.851 69.5949 36.6281 70.1906 37.172C70.7864 37.6901 71.5635 37.9491 72.5218 37.9491C73.5061 37.9491 74.2832 37.7289 74.853 37.2886C75.4229 36.8223 75.7078 36.1877 75.7078 35.3848C75.7078 34.7113 75.4747 34.1544 75.0084 33.7141C74.5681 33.2737 74.0112 32.9111 73.3377 32.6262C72.6902 32.3413 71.7577 32.0175 70.5403 31.6549C68.779 31.1109 67.3414 30.567 66.2276 30.023C65.1138 29.4791 64.1554 28.6761 63.3525 27.6141C62.5495 26.5521 62.148 25.1664 62.148 23.4568C62.148 20.9184 63.0675 18.9369 64.9066 17.5123C66.7457 16.0618 69.1416 15.3365 72.0944 15.3365C75.0991 15.3365 77.5209 16.0618 79.36 17.5123C81.1991 18.9369 82.1833 20.9314 82.3128 23.4957H75.125C75.0732 22.615 74.7494 21.9286 74.1537 21.4365C73.5579 20.9184 72.7938 20.6594 71.8613 20.6594C71.0584 20.6594 70.4108 20.8796 69.9187 21.3199C69.4265 21.7343 69.1805 22.343 69.1805 23.146C69.1805 24.0267 69.5949 24.7131 70.4238 25.2052C71.2526 25.6974 72.5477 26.2284 74.3091 26.7982C76.0704 27.394 77.495 27.9638 78.5829 28.5077C79.6967 29.0517 80.6551 29.8417 81.4581 30.8778C82.261 31.9139 82.6625 33.2478 82.6625 34.8797C82.6625 36.4338 82.261 37.8455 81.4581 39.1147C80.681 40.3839 79.5413 41.3941 78.039 42.1452C76.5367 42.8964 74.7624 43.272 72.7161 43.272ZM100.078 21.0868C102.564 21.0868 104.559 21.9156 106.061 23.5734C107.564 25.2052 108.315 27.4587 108.315 30.3338V43H101.71V31.2275C101.71 29.777 101.334 28.6502 100.583 27.8472C99.8318 27.0443 98.8216 26.6428 97.5524 26.6428C96.2832 26.6428 95.273 27.0443 94.5219 27.8472C93.7707 28.6502 93.3951 29.777 93.3951 31.2275V43H86.7512V14.2486H93.3951V24.2339C94.0686 23.2755 94.9881 22.5114 96.1537 21.9415C97.3193 21.3717 98.6274 21.0868 100.078 21.0868ZM116.273 19.0664C115.107 19.0664 114.149 18.7297 113.398 18.0562C112.673 17.3569 112.31 16.5021 112.31 15.4919C112.31 14.4558 112.673 13.6011 113.398 12.9276C114.149 12.2282 115.107 11.8786 116.273 11.8786C117.413 11.8786 118.345 12.2282 119.07 12.9276C119.822 13.6011 120.197 14.4558 120.197 15.4919C120.197 16.5021 119.822 17.3569 119.07 18.0562C118.345 18.7297 117.413 19.0664 116.273 19.0664ZM119.576 21.3199V43H112.932V21.3199H119.576ZM131.034 24.3893C131.682 23.3791 132.575 22.5632 133.715 21.9415C134.855 21.3199 136.189 21.0091 137.717 21.0091C139.504 21.0091 141.123 21.4624 142.574 22.3689C144.024 23.2755 145.164 24.5706 145.993 26.2543C146.847 27.9379 147.275 29.8935 147.275 32.1211C147.275 34.3487 146.847 36.3172 145.993 38.0268C145.164 39.7104 144.024 41.0185 142.574 41.951C141.123 42.8575 139.504 43.3108 137.717 43.3108C136.215 43.3108 134.881 43 133.715 42.3783C132.575 41.7567 131.682 40.9537 131.034 39.9694V53.335H124.39V21.3199H131.034V24.3893ZM140.514 32.1211C140.514 30.4634 140.048 29.1682 139.116 28.2358C138.209 27.2774 137.082 26.7982 135.735 26.7982C134.414 26.7982 133.288 27.2774 132.355 28.2358C131.449 29.1942 130.995 30.5022 130.995 32.1599C130.995 33.8177 131.449 35.1257 132.355 36.0841C133.288 37.0425 134.414 37.5217 135.735 37.5217C137.056 37.5217 138.183 37.0425 139.116 36.0841C140.048 35.0998 140.514 33.7788 140.514 32.1211Z" fill="#59E7B4"/>
<path d="M157.404 15.725V43H150.76V15.725H157.404ZM174.302 37.3663V43H170.922C168.513 43 166.635 42.4172 165.288 41.2516C163.942 40.0601 163.268 38.1304 163.268 35.4625V26.8371H160.626V21.3199H163.268V16.0359H169.912V21.3199H174.264V26.8371H169.912V35.5402C169.912 36.1877 170.067 36.654 170.378 36.9389C170.689 37.2238 171.207 37.3663 171.932 37.3663H174.302Z" fill="white"/>
</svg>
